<svg xmlns="http://www.w3.org/2000/svg" xmlns:xlink="http://www.w3.org/1999/xlink" viewBox="0 0 185 64"><defs><style>.cls-1{fill:#3d5a98;}.cls-2,.cls-4{fill:#fff;}.cls-3{fill:#ee4242;}.cls-4{fill-rule:evenodd;}</style></defs><g id="Layer_2" data-name="Layer 2"><g id="facebook-live"><path id="Blue" class="cls-1" d="M9.3,0H54.63a9.3,9.3,0,0,1,9.3,9.3V54.7a9.3,9.3,0,0,1-9.3,9.3H9.31A9.31,9.31,0,0,1,0,54.69V9.3A9.3,9.3,0,0,1,9.3,0Z"/><path id="f" class="cls-2" d="M44.11,64V39.22h8.31l1.25-9.66H44.11V23.39c0-2.8.78-4.7,4.78-4.7H54V10.05a67.47,67.47,0,0,0-7.44-.38c-7.37,0-12.41,4.5-12.41,12.76v7.13H25.82v9.66h8.33V64Z"/><rect id="Blue-2" data-name="Blue" class="cls-3" x="70.63" width="114.37" height="64" rx="9.3"/><path class="cls-4" d="M167.1,41.36H154.42V33.77h12V29.83h-12V22.64H167.1V18.45H149.58v27.1H167.1Zm-31.55,4.19,9.36-27.1h-5.16L133,39.9h-.31l-6.82-21.45h-5.34L130,45.55Zm-19.7,0V18.45H111v27.1Zm-10.06-4.24H93.37V18.45H88.53v27.1h17.26Z"/></g></g></svg>
